<svg xmlns="http://www.w3.org/2000/svg" width="18" height="18" viewBox="0 0 18 18">
  <g id="Group_1" data-name="Group 1" transform="translate(-1273 -46)">
    <g id="Ellipse_1" data-name="Ellipse 1" transform="translate(1278 46)" fill="none" stroke="#463233" stroke-width="1">
      <circle cx="4" cy="4" r="4" stroke="none"/>
      <circle cx="4" cy="4" r="3.5" fill="none"/>
    </g>
    <g id="Subtraction_1" data-name="Subtraction 1" transform="translate(1267 56)" fill="none">
      <path d="M24,8H6c0-4.412,4.038-8,9-8s9,3.588,9,8Z" stroke="none"/>
      <path d="M 22.91893768310547 7.000100135803223 C 22.36271095275879 3.612343072891235 19.02342414855957 1.00000011920929 15.00030136108398 1.00000011920929 C 10.97706413269043 1.00000011920929 7.637927532196045 3.612243175506592 7.081686496734619 7.000100135803223 L 22.91893768310547 7.000100135803223 M 24.00030136108398 8.000100135803223 L 6.000301361083984 8.000100135803223 C 6.000301361083984 3.588380098342896 10.03813171386719 6.790160966829717e-08 15.00030136108398 6.790160966829717e-08 C 19.96243095397949 6.790160966829717e-08 23.99981117248535 3.588380098342896 24.00030136108398 7.999100208282471 L 24.00030136108398 8.000100135803223 Z" stroke="none" fill="#463233"/>
    </g>
  </g>
</svg>
