<svg xmlns="http://www.w3.org/2000/svg" xmlns:xlink="http://www.w3.org/1999/xlink" width="46.895" height="46.895" viewBox="0 0 46.895 46.895">
  <defs>
    <clipPath id="clip-path">
      <rect id="Rectangle_7" data-name="Rectangle 7" width="46.895" height="46.895" transform="translate(0 0)" fill="none"/>
    </clipPath>
  </defs>
  <g id="Group_27" data-name="Group 27" transform="translate(-320 -6302)">
    <circle id="Ellipse_8" data-name="Ellipse 8" cx="22.5" cy="22.5" r="22.5" transform="translate(321 6303)" fill="#463233"/>
    <g id="Group_4" data-name="Group 4" transform="translate(320 6302)" clip-path="url(#clip-path)">
      <path id="Path_6" data-name="Path 6" d="M23.448,14.188c3.016,0,3.373.011,4.564.066a6.233,6.233,0,0,1,2.1.389,3.742,3.742,0,0,1,2.144,2.143,6.287,6.287,0,0,1,.389,2.1c.054,1.191.066,1.548.066,4.563s-.012,3.373-.066,4.564a6.287,6.287,0,0,1-.389,2.1,3.742,3.742,0,0,1-2.144,2.143,6.233,6.233,0,0,1-2.1.389c-1.191.054-1.548.066-4.564.066s-3.373-.012-4.564-.066a6.233,6.233,0,0,1-2.1-.389,3.742,3.742,0,0,1-2.144-2.143,6.287,6.287,0,0,1-.389-2.1c-.054-1.191-.065-1.548-.065-4.564s.011-3.372.065-4.563a6.287,6.287,0,0,1,.389-2.1,3.742,3.742,0,0,1,2.144-2.143,6.233,6.233,0,0,1,2.1-.389c1.191-.055,1.548-.066,4.564-.066m0-2.035c-3.067,0-3.452.013-4.657.068a8.293,8.293,0,0,0-2.741.525,5.773,5.773,0,0,0-3.3,3.3,8.254,8.254,0,0,0-.525,2.742c-.055,1.2-.068,1.589-.068,4.656s.013,3.453.068,4.657a8.254,8.254,0,0,0,.525,2.742,5.773,5.773,0,0,0,3.3,3.3,8.293,8.293,0,0,0,2.741.525c1.2.055,1.59.068,4.657.068s3.452-.013,4.657-.068a8.293,8.293,0,0,0,2.741-.525,5.778,5.778,0,0,0,3.3-3.3,8.306,8.306,0,0,0,.525-2.742c.054-1.2.067-1.589.067-4.657s-.013-3.451-.067-4.656a8.306,8.306,0,0,0-.525-2.742,5.778,5.778,0,0,0-3.3-3.3,8.293,8.293,0,0,0-2.741-.525c-1.2-.055-1.59-.068-4.657-.068" fill="#fff"/>
      <path id="Path_7" data-name="Path 7" d="M23.448,17.648a5.8,5.8,0,1,0,5.8,5.8,5.8,5.8,0,0,0-5.8-5.8m0,9.565a3.765,3.765,0,1,1,3.765-3.765,3.765,3.765,0,0,1-3.765,3.765" fill="#fff"/>
      <path id="Path_8" data-name="Path 8" d="M30.832,17.419a1.356,1.356,0,1,1-1.355-1.355,1.355,1.355,0,0,1,1.355,1.355" fill="#fff"/>
    </g>
  </g>
</svg>
