<svg xmlns="http://www.w3.org/2000/svg" width="146" height="18" viewBox="0 0 146 18">
  <g id="Group_22" data-name="Group 22" transform="translate(-207 -5450)">
    <path id="Polygon_1" data-name="Polygon 1" d="M11,0l2.86,6.564L22,6.875l-6.372,4.368L17.8,18,11,14.136,4.2,18l2.171-6.756L0,6.875l8.14-.312Z" transform="translate(207 5450)" fill="rgba(225,151,114,0.76)"/>
    <path id="Polygon_1-2" data-name="Polygon 1" d="M11,0l2.86,6.564L22,6.875l-6.372,4.368L17.8,18,11,14.136,4.2,18l2.171-6.756L0,6.875l8.14-.312Z" transform="translate(238 5450)" fill="rgba(225,151,114,0.76)"/>
    <path id="Polygon_1-3" data-name="Polygon 1" d="M11,0l2.86,6.564L22,6.875l-6.372,4.368L17.8,18,11,14.136,4.2,18l2.171-6.756L0,6.875l8.14-.312Z" transform="translate(269 5450)" fill="rgba(225,151,114,0.76)"/>
    <path id="Polygon_1-4" data-name="Polygon 1" d="M11,0l2.86,6.564L22,6.875l-6.372,4.368L17.8,18,11,14.136,4.2,18l2.171-6.756L0,6.875l8.14-.312Z" transform="translate(300 5450)" fill="rgba(225,151,114,0.76)"/>
    <g id="Polygon_1-5" data-name="Polygon 1" transform="translate(331 5450)" fill="#fff">
      <path d="M11,0l2.86,6.564L22,6.875l-6.372,4.368L17.8,18,11,14.136,4.2,18l2.171-6.756L0,6.875l8.14-.312Z" stroke="none"/>
      <path d="M 11 2.503391265869141 L 8.805870056152344 7.538900375366211 L 3.057689666748047 7.759032249450684 L 7.552419662475586 10.84016036987305 L 5.938764572143555 15.86244964599609 L 11 12.98584938049316 L 16.06123542785645 15.86244964599609 L 14.44758033752441 10.84016036987305 L 18.94231033325195 7.759032249450684 L 13.19412994384766 7.538900375366211 L 11 2.503391265869141 M 11 0 L 13.85999965667725 6.56367015838623 L 22 6.87539005279541 L 15.6275806427002 11.2436695098877 L 17.79837036132812 18 L 11 14.13607978820801 L 4.201629638671875 18 L 6.372420310974121 11.2436695098877 L 0 6.87539005279541 L 8.140000343322754 6.56367015838623 L 11 0 Z" stroke="none" fill="rgba(225,151,114,0.76)"/>
    </g>
  </g>
</svg>
