<svg xmlns="http://www.w3.org/2000/svg" xmlns:xlink="http://www.w3.org/1999/xlink" width="46.895" height="46.895" viewBox="0 0 46.895 46.895">
  <defs>
    <clipPath id="clip-path">
      <rect id="Rectangle_9" data-name="Rectangle 9" width="46.895" height="46.895" transform="translate(0 0)" fill="none"/>
    </clipPath>
  </defs>
  <g id="Group_9" data-name="Group 9" transform="translate(0 0)">
    <g id="Group_8" data-name="Group 8" clip-path="url(#clip-path)">
      <path id="Path_12" data-name="Path 12" d="M12.472,31.282a12.807,12.807,0,0,0,19.7-11.373,9.106,9.106,0,0,0,2.247-2.331,9.022,9.022,0,0,1-2.586.709,4.512,4.512,0,0,0,1.98-2.491,9.04,9.04,0,0,1-2.859,1.093A4.507,4.507,0,0,0,23.282,21,12.78,12.78,0,0,1,14,16.291,4.509,4.509,0,0,0,15.394,22.3a4.5,4.5,0,0,1-2.04-.564,4.508,4.508,0,0,0,3.612,4.473,4.5,4.5,0,0,1-2.033.077,4.5,4.5,0,0,0,4.206,3.127,9.049,9.049,0,0,1-6.667,1.865" fill="none" stroke="#463233" stroke-width="1"/>
    </g>
  </g>
</svg>
